<?xml version="1.0" encoding="UTF-8"?>
<svg id="Layer_1" data-name="Layer 1" xmlns="http://www.w3.org/2000/svg" viewBox="0 0 239.82 63">
  <defs>
    <style>
      .cls-1 {
        fill: none;
        stroke: #008180;
        stroke-miterlimit: 10;
        stroke-width: 10px;
      }

      .cls-2 {
        fill: #008180;
        stroke-width: 0px;
      }
    </style>
  </defs>
  <polyline class="cls-2" points="129.74 19.6 129.74 15.17 138.21 15.17 138.21 19.6"/>
  <g>
    <path class="cls-2" d="M85.73,42.57v.19h-19.12c1.02,2.54,3.14,4.28,5.86,4.28,1.35,0,3.09-.41,5.12-2.3l7,4.23c-3.65,4.91-8.93,5.95-12.3,5.95-8.49,0-15.12-6.55-15.12-15.47s6.81-15.47,15.14-15.47c8.86,0,14.07,7.25,14.07,14.31,0,1.55-.26,3.17-.65,4.28ZM66.29,36.55h11.12c-.56-2.9-2.19-5.05-5.23-5.05s-5.12,2.18-5.88,5.05Z"/>
    <path class="cls-2" d="M120.16,38.41v15.92h-9.4v-15.92c0-3.95-1.6-5.57-4.44-5.57-3.05,0-4.77,2.28-4.77,5.57v15.92h-9.4v-29.44h8.7l.37,2.58c2.12-2.16,5.02-3.48,8.56-3.48,5.21,0,10.37,2.65,10.37,14.42Z"/>
    <path class="cls-2" d="M179.87,24.92v28.41h-8.7l-.44-2.94c-2.07,2.49-5.07,3.93-8.84,3.93-8.4,0-13.91-7.06-13.91-15.2s5.74-15.2,13.91-15.2c3.7,0,6.72,1.37,8.86,3.88l.42-2.89h8.7ZM170.48,39.06c0-3.98-2.95-6.49-6.47-6.49-3.81,0-6.63,2.96-6.63,6.51s2.58,6.58,6.61,6.58c3.7,0,6.49-2.72,6.49-6.61Z"/>
    <path class="cls-2" d="M198.02,25.52v.97h5.98v8.3h-5.98v19.53h-9.4v-19.53h-3.58v-8.3h3.58v-.97c0-5.54,2.91-10.39,9.12-10.39,1.81,0,4.49.39,6.26,1.04v7.28c-.98-.37-2.02-.63-2.93-.63-2.56,0-3.05,1.93-3.05,2.69Z"/>
    <path class="cls-2" d="M239.82,23.93l-17.49,39.07h-9.77l5.77-13.14-11.28-25.93h10.44l5.37,15.58,6.81-15.58h10.14Z"/>
    <path class="cls-1" d="M24.68,54.41v-15.47c0-5.49-4.4-9.95-9.84-9.95s-9.84,4.45-9.84,9.95v15.47"/>
    <path class="cls-1" d="M46.61,54.41v-15.16c0-5.38-4.4-9.75-9.84-9.75s-9.84,4.36-9.84,9.75v15.16"/>
    <circle class="cls-2" cx="14.54" cy="10.4" r="10.4"/>
    <rect class="cls-2" x="27.72" y="1.35" width="18.28" height="18.28"/>
    <path class="cls-2" d="M128.81,43.65v-10.39h-3.91v-7.67h.88c2.49,0,3.95-1.4,3.95-3.95v-2.82h8.47v5.99h5.7v8.45h-5.7v9.91c0,1.94,1.12,2.93,2.79,2.93.86,0,2-.31,2.84-.57v7.17c-1.56.61-4.19.97-6.02.97-6.86,0-9-4.73-9-10.03Z"/>
  </g>
</svg>